<svg width="5" height="20" viewBox="0 0 5 20" fill="none" xmlns="http://www.w3.org/2000/svg">
<g clip-path="url(#clip0_1_185)">
<g clip-path="url(#clip1_1_185)">
<path d="M2.308 4.616C3.58267 4.616 4.616 3.58267 4.616 2.308C4.616 1.03333 3.58267 0 2.308 0C1.03333 0 0 1.03333 0 2.308C0 3.58267 1.03333 4.616 2.308 4.616Z" fill="#828FA3"/>
<path d="M2.308 12.308C3.58267 12.308 4.616 11.2747 4.616 10C4.616 8.72534 3.58267 7.69202 2.308 7.69202C1.03333 7.69202 0 8.72534 0 10C0 11.2747 1.03333 12.308 2.308 12.308Z" fill="#828FA3"/>
<path d="M2.308 20C3.58267 20 4.616 18.9667 4.616 17.692C4.616 16.4174 3.58267 15.384 2.308 15.384C1.03333 15.384 0 16.4174 0 17.692C0 18.9667 1.03333 20 2.308 20Z" fill="#828FA3"/>
</g>
</g>
<defs>
<clipPath id="clip0_1_185">
<rect width="5" height="20" fill="white"/>
</clipPath>
<clipPath id="clip1_1_185">
<rect width="5" height="20" fill="white"/>
</clipPath>
</defs>
</svg>
