<svg width="25" height="26" viewBox="0 0 25 26" fill="none" xmlns="http://www.w3.org/2000/svg">
<g clip-path="url(#clip0_6_124)">
<path d="M4.74561 0.756226H2.74561C1.64104 0.756226 0.745605 1.65166 0.745605 2.75623V23.7562C0.745605 24.8608 1.64104 25.7562 2.74561 25.7562H4.74561C5.85017 25.7562 6.74561 24.8608 6.74561 23.7562V2.75623C6.74561 1.65166 5.85017 0.756226 4.74561 0.756226Z" fill="#635FC7"/>
<path opacity="0.75" d="M13.7456 0.756226H11.7456C10.641 0.756226 9.74561 1.65166 9.74561 2.75623V23.7562C9.74561 24.8608 10.641 25.7562 11.7456 25.7562H13.7456C14.8502 25.7562 15.7456 24.8608 15.7456 23.7562V2.75623C15.7456 1.65166 14.8502 0.756226 13.7456 0.756226Z" fill="#635FC7"/>
<path opacity="0.5" d="M22.7456 0.756226H20.7456C19.641 0.756226 18.7456 1.65166 18.7456 2.75623V23.7562C18.7456 24.8608 19.641 25.7562 20.7456 25.7562H22.7456C23.8502 25.7562 24.7456 24.8608 24.7456 23.7562V2.75623C24.7456 1.65166 23.8502 0.756226 22.7456 0.756226Z" fill="#635FC7"/>
</g>
<defs>
<clipPath id="clip0_6_124">
<rect width="24" height="25" fill="white" transform="translate(0.745605 0.756226)"/>
</clipPath>
</defs>
</svg>
